<svg xmlns="http://www.w3.org/2000/svg" width="430" height="430" style="width:100%;height:100%;transform:translate3d(0,0,0);content-visibility:visible" viewBox="0 0 430 430"><defs><clipPath id="c"><path d="M0 0h430v430H0z"/></clipPath><clipPath id="f"><path d="M0 0h430v430H0z"/></clipPath><clipPath id="d"><path d="M0 0h430v430H0z"/></clipPath><mask id="g" mask-type="alpha"><use xmlns:ns1="http://www.w3.org/1999/xlink" ns1:href="#a"/></mask><mask id="e" mask-type="alpha"><use xmlns:ns2="http://www.w3.org/1999/xlink" ns2:href="#b"/></mask><path id="a" style="display:none"/><g id="b" fill="#FF0047" style="display:block"><path d="m322.329 197.457-.335 95.547s-27.487 50.287-107.049 50.029c-80.665-.262-108.846-50.029-108.846-50.029L-3.5 132.332"/><path fill-opacity=".5" d="m98.329-39.542-.335 95.547S70.507 106.292-9.055 106.034c-80.665-.262-108.846-50.029-108.846-50.029L-227.5-104.667" style="mix-blend-mode:multiply" transform="translate(224 236.999)"/></g></defs><g clip-path="url(#c)"><g clip-path="url(#d)" style="display:block"><g fill="#3A3347" style="display:block"><path d="m322.329 197.457-.335 95.547s-27.487 50.287-107.049 50.029c-80.665-.262-108.846-50.029-108.846-50.029l.401-95.672" class="secondary"/><path fill-opacity=".5" d="m98.329-39.542-.335 95.547S70.507 106.292-9.055 106.034c-80.665-.262-108.846-50.029-108.846-50.029l.401-95.672" class="secondary" style="mix-blend-mode:multiply" transform="translate(224 236.999)"/></g><path fill="#3A3347" d="M180.44-92.969.021-156.781-179.469-93 .021-29.219l180.419-63.75zm-357.657-.061-2.098-.001-.154 29.031L.021-.219 180.47-64.25l.03-28.687-5.922-.002" class="secondary" style="display:block" transform="translate(214.5 236.999)"/><g fill="none" stroke="#FFC738" stroke-linecap="round" stroke-linejoin="round" style="display:block"><path stroke-width="7" d="m215.5 142.999 77 28v105m0 2.5v23.844" class="primary"/><path stroke-width="15" d="M292.5 278.499v23.844" class="primary"/></g><g mask="url(#e)" opacity=".5" style="mix-blend-mode:multiply;display:block"><path fill="#3A3347" d="M89.74-23.952v29l-1.239 1.238L7.28 87.458c-9.989-7.054-19.49-15.884-25.96-26.19-.034-1.052.459-93.563.44-94.59l-69.5-24.7a3.01 3.01 0 0 1-2-2.8c.178-.596-.364-27.069.77-26.63l178.71 63.5z" class="secondary" opacity="1" style="mix-blend-mode:multiply" transform="translate(124.761 232.109)"/></g></g><g clip-path="url(#f)" style="display:none"><g style="display:none"><path class="secondary"/><path class="secondary" style="mix-blend-mode:multiply"/></g><g mask="url(#g)" style="mix-blend-mode:multiply;display:none"><path class="secondary" style="mix-blend-mode:multiply"/></g><g style="display:none"><path class="secondary"/><path class="secondary" style="mix-blend-mode:multiply"/></g><path fill="none" class="primary" style="display:none"/><path fill="none" class="primary" style="display:none"/></g></g></svg>