<svg xmlns="http://www.w3.org/2000/svg" width="430" height="430" style="width:100%;height:100%;transform:translate3d(0,0,0);content-visibility:visible" viewBox="0 0 430 430"><defs><clipPath id="c"><path d="M0 0h430v430H0z"/></clipPath><clipPath id="g"><path d="M0 0h430v430H0z"/></clipPath><clipPath id="f"><path d="M0 0h430v430H0z"/></clipPath><clipPath id="d"><path d="M0 0h430v430H0z"/></clipPath><path id="b" style="display:none"/><path id="a" style="display:none"/><mask id="h" mask-type="alpha"><use xmlns:ns1="http://www.w3.org/1999/xlink" ns1:href="#a"/></mask><mask id="e" mask-type="alpha"><use xmlns:ns2="http://www.w3.org/1999/xlink" ns2:href="#b"/></mask></defs><g clip-path="url(#c)"><g clip-path="url(#d)" style="display:none"><g style="display:none"><path fill="none" class="primary"/><path class="primary"/></g><g fill="none" style="display:none"><path class="secondary"/><path class="secondary"/></g><g mask="url(#e)" style="mix-blend-mode:multiply;display:none"><path class="primary"/><path class="primary" style="mix-blend-mode:multiply"/></g></g><g clip-path="url(#f)" style="display:block"><path fill="#EBE6EF" d="M-155-135c-16.569 0-30 13.431-30 30v210c0 16.569 13.431 30 30 30h310c16.569 0 30-13.431 30-30v-210c0-16.569-13.431-30-30-30h-310z" class="primary" style="display:block" transform="translate(215 215)"/><g opacity=".4" style="mix-blend-mode:multiply;display:block"><path fill="#EBE6EF" d="M30 110v210c0 16.569 13.431 30 30 30h310c16.569 0 30-13.431 30-30V110c0-16.569-13.431-30-30-30H60c-16.569 0-30 13.431-30 30zm20 0c0-5.523 4.477-10 10-10h310c5.523 0 10 4.477 10 10v210c0 5.523-4.477 10-10 10H60c-5.523 0-10-4.477-10-10V110z" class="primary" opacity="1"/></g><g opacity=".3" style="mix-blend-mode:multiply;display:block"><path fill="#EBE6EF" d="M30 110c0-16.569 13.431-30 30-30h55c-16.569 0-30 13.431-30 30v210c0 16.569 13.431 30 30 30H60c-16.569 0-30-13.431-30-30V110z" class="primary" opacity="1"/></g><path fill="none" stroke="#F24C00" stroke-linecap="round" stroke-linejoin="round" stroke-width="7" d="M302.444 238.611v4.167c0 12.273-9.949 22.222-22.222 22.222h-27.778c-12.273 0-22.222-9.949-22.222-22.222v-55.556c0-12.273 9.949-22.222 22.222-22.222h27.778c12.273 0 22.222 9.949 22.222 22.222v4.167m-103.222 47.222v4.167c0 12.273-9.949 22.222-22.222 22.222h-27.778C136.949 265 127 255.051 127 242.778v-55.556c0-12.273 9.949-22.222 22.222-22.222H177c12.273 0 22.222 9.949 22.222 22.222v4.167" class="secondary" style="display:block"/><g fill="none" style="display:none"><path class="secondary"/><path class="secondary"/></g></g><g clip-path="url(#g)" style="display:none"><path class="primary" style="display:none"/><g style="mix-blend-mode:multiply;display:none"><path class="primary"/><path class="primary" style="mix-blend-mode:multiply"/></g><g fill="none" mask="url(#h)" style="display:none"><path class="secondary"/><path class="secondary"/></g></g></g></svg>