<svg xmlns="http://www.w3.org/2000/svg" width="430" height="430" style="width:100%;height:100%;transform:translate3d(0,0,0);content-visibility:visible" viewBox="0 0 430 430"><defs><clipPath id="e"><path d="M0 0h430v430H0z"/></clipPath><clipPath id="h"><path d="M0 0h430v430H0z"/></clipPath><clipPath id="g"><path d="M0 0h430v430H0z"/></clipPath><clipPath id="f"><path d="M0 0h430v430H0z"/></clipPath><filter id="a" width="100%" height="100%" x="0%" y="0%" filterUnits="objectBoundingBox"><feComponentTransfer in="SourceGraphic"><feFuncA tableValues="1.0 0.0" type="table"/></feComponentTransfer></filter><filter id="c" width="100%" height="100%" x="0%" y="0%" filterUnits="objectBoundingBox"><feComponentTransfer in="SourceGraphic"><feFuncA tableValues="1.0 0.0" type="table"/></feComponentTransfer></filter><path id="b" style="display:none"/><path id="d" style="display:none"/><mask id="j" mask-type="alpha"><g filter="url(#a)"><path fill="#fff" d="M0 0h430v430H0z" opacity="0"/><use xmlns:ns1="http://www.w3.org/1999/xlink" ns1:href="#b"/></g></mask><mask id="i" mask-type="alpha"><g filter="url(#c)"><path fill="#fff" d="M0 0h430v430H0z" opacity="0"/><use xmlns:ns2="http://www.w3.org/1999/xlink" ns2:href="#d"/></g></mask></defs><g clip-path="url(#e)"><g clip-path="url(#f)" style="display:none"><path fill="none" class="primary" style="display:none"/><path fill="none" class="primary" style="display:none"/><path fill="none" class="primary" style="display:none"/><path fill="none" class="primary" style="display:none"/><path fill="none" class="primary" style="display:none"/><path fill="none" class="primary" style="display:none"/><path fill="none" class="primary" style="display:none"/><path class="secondary" style="display:none"/><path class="secondary" style="mix-blend-mode:multiply;display:none"/><path class="primary" style="display:none"/><path class="primary" style="mix-blend-mode:multiply;display:none"/><path fill="none" class="tertiary" style="display:none"/></g><g clip-path="url(#g)" style="display:block"><path fill="none" class="primary" style="display:none"/><path fill="none" class="primary" style="display:none"/><path fill="none" class="primary" style="display:none"/><path fill="none" class="primary" style="display:none"/><path fill="none" class="primary" style="display:none"/><path fill="none" class="primary" style="display:none"/><path fill="none" class="primary" style="display:none"/><path fill="#646E78" d="M-33.235-19h66.47v9.86A28.141 28.141 0 0 1 5.095 19h-10.18a28.139 28.139 0 0 1-28.15-28.14V-19z" class="secondary" style="display:block" transform="translate(215.744 353) scale(.99999)"/><g opacity=".5" style="mix-blend-mode:multiply;display:block"><path fill="#646E78" fill-opacity=".5" d="M182.51 334h33.24v37.999h-5.09a28.139 28.139 0 0 1-28.15-28.14V334z" class="secondary" opacity="1"/></g><path fill="#FFC738" d="M27.405 127.37H-.015l-27.41-.03a13.702 13.702 0 0 1-13.7-13.71V99.34a25.65 25.65 0 0 0-9-19.52c-17.66-15.09-55.25-53.21-55.25-104 0-58.93 31.03-103.19 105.36-103.19s105.36 44.26 105.39 103.18c0 50.77-37.59 88.89-55.26 104a25.653 25.653 0 0 0-9 19.52v14.3a13.715 13.715 0 0 1-8.456 12.694 13.708 13.708 0 0 1-5.254 1.046z" class="primary" style="display:block" transform="translate(216.015 181.367) scale(.99999)"/><g opacity=".5" style="mix-blend-mode:multiply;display:block"><path fill="#FFC738" d="M201.3 261.208c5.7 4.88 14.7 12.01 14.7 19.52v27.98h-27.41a13.702 13.702 0 0 1-13.7-13.71v-14.29a25.65 25.65 0 0 0-8.999-19.52c-17.66-15.09-55.25-53.21-55.25-103.998 0-58.93 31.03-103.19 105.36-103.19 5.911-.004 11.82.306 17.7.93-61.58 6.58-87.65 48.28-87.65 102.28 0 50.769 37.59 88.888 55.25 103.998z" class="primary" opacity="1"/></g><path fill="none" stroke="#F24C00" stroke-linecap="round" stroke-linejoin="round" stroke-width="1.8" d="M3.554 11.587 7.957-9.867 3.554-3.826-1.07-9.229l-4.624 5.403-4.404-6.041 4.404 21.454" class="tertiary" style="display:block" transform="matrix(4.37 0 0 4.37 220.359 206.005)"/></g><g clip-path="url(#h)" style="display:none"><g style="display:none"><path class="secondary"/><path class="secondary" style="mix-blend-mode:multiply"/></g><path class="primary" style="display:none"/><g mask="url(#i)" style="mix-blend-mode:multiply;display:none"><path class="primary"/></g><g fill="none" style="display:none"><path class="tertiary"/><path class="tertiary"/></g><path class="primary" style="display:none"/><g mask="url(#j)" style="mix-blend-mode:multiply;display:none"><path class="primary"/></g></g></g></svg>