<svg xmlns="http://www.w3.org/2000/svg" width="430" height="430" style="width:100%;height:100%;transform:translate3d(0,0,0);content-visibility:visible" viewBox="0 0 430 430"><defs><clipPath id="g"><path d="M0 0h430v430H0z"/></clipPath><clipPath id="n"><path d="M0 0h430v430H0z"/></clipPath><clipPath id="l"><path d="M0 0h430v430H0z"/></clipPath><clipPath id="d"><path d="M0 0h430v430H0z"/></clipPath><clipPath id="j"><path d="M0 0h430v430H0z"/></clipPath><clipPath id="e"><path d="M0 0h430v430H0z"/></clipPath><clipPath id="h"><path d="M0 0h430v430H0z"/></clipPath><clipPath id="f"><path d="M0 0h430v430H0z"/></clipPath><mask id="m" mask-type="alpha"><use xmlns:ns1="http://www.w3.org/1999/xlink" ns1:href="#a"/></mask><mask id="k" mask-type="alpha"><use xmlns:ns2="http://www.w3.org/1999/xlink" ns2:href="#b"/></mask><mask id="i" mask-type="alpha"><use xmlns:ns3="http://www.w3.org/1999/xlink" ns3:href="#c"/></mask><g id="a" clip-path="url(#d)" style="display:block"><path fill="red" d="M88.388-53.254c.732.732.732 1.92 0 2.652L-50.381 88.167a1.876 1.876 0 0 1-2.652 0l-34.913-34.913a1.876 1.876 0 0 1 0-2.652L50.823-88.167a1.876 1.876 0 0 1 2.652 0l34.913 34.913z" style="display:block" transform="translate(214.5 215.5)"/><path style="display:none"/><path fill="red" d="M87.946 50.602c.732.732.732 1.92 0 2.652L53.033 88.167a1.876 1.876 0 0 1-2.652 0L-88.388-50.602a1.876 1.876 0 0 1 0-2.652l34.913-34.913a1.876 1.876 0 0 1 2.652 0L87.946 50.602z" style="display:block" transform="translate(214.5 215.5)"/><path style="display:none"/></g><g id="b" clip-path="url(#e)" style="display:none"><path style="display:none"/><path style="display:none"/><path style="display:none"/><path style="display:none"/></g><g id="c" clip-path="url(#f)" style="display:none"><path style="display:none"/><path style="display:none"/></g></defs><g clip-path="url(#g)"><g clip-path="url(#h)" style="display:none"><g style="display:none"><path class="primary"/><path class="primary" style="mix-blend-mode:multiply"/></g><path class="secondary" style="display:none"/><path class="secondary" style="display:none"/><g mask="url(#i)" style="mix-blend-mode:multiply;display:none"><path class="secondary"/></g></g><g clip-path="url(#j)" style="display:none"><g style="display:none"><path class="primary"/><path fill="none" class="primary"/></g><g style="display:none"><path class="primary"/><path class="primary" style="mix-blend-mode:multiply"/></g><path class="secondary" style="display:none"/><path class="secondary" style="display:none"/><path class="secondary" style="display:none"/><path class="secondary" style="display:none"/><g mask="url(#k)" style="mix-blend-mode:multiply;display:none"><path class="secondary"/></g></g><g clip-path="url(#l)" style="display:block"><g fill="#EBE6EF" style="display:block"><path d="M214.5 383c92.508 0 167.5-74.992 167.5-167.5S307.008 48 214.5 48 47 122.992 47 215.5 121.992 383 214.5 383z" class="primary"/><path d="M63.926 161.034a167.869 167.869 0 0 0 65.673-25.039A167.888 167.888 0 0 1-88.594-66.656a167.893 167.893 0 0 1 70.493-96.349A167.877 167.877 0 0 0-129.484 1.342a167.877 167.877 0 0 0 193.41 159.692z" class="primary" opacity=".5" style="mix-blend-mode:multiply" transform="translate(176.312 220.156)"/></g><path fill="#F24C00" d="M88.388-53.254c.732.732.732 1.92 0 2.652L-50.381 88.167a1.876 1.876 0 0 1-2.652 0l-34.913-34.913a1.876 1.876 0 0 1 0-2.652L50.823-88.167a1.876 1.876 0 0 1 2.652 0l34.913 34.913z" class="secondary" style="display:block" transform="translate(214.5 215.5)"/><path class="secondary" style="display:none"/><path fill="#F24C00" d="M87.946 50.602c.732.732.732 1.92 0 2.652L53.033 88.167a1.876 1.876 0 0 1-2.652 0L-88.388-50.602a1.876 1.876 0 0 1 0-2.652l34.913-34.913a1.876 1.876 0 0 1 2.652 0L87.946 50.602z" class="secondary" style="display:block" transform="translate(214.5 215.5)"/><path class="secondary" style="display:none"/><g mask="url(#m)" opacity=".5" style="mix-blend-mode:multiply;display:block"><path fill="#F24C00" d="M214 45v339H42V45h172z" class="secondary" opacity="1"/></g></g><g clip-path="url(#n)" style="display:none"><path class="secondary" style="display:none"/><path class="secondary" style="display:none"/><path class="secondary" style="mix-blend-mode:multiply;display:none"/></g></g></svg>