<svg xmlns="http://www.w3.org/2000/svg" width="430" height="430" style="width:100%;height:100%;transform:translate3d(0,0,0);content-visibility:visible" viewBox="0 0 430 430"><defs><clipPath id="a"><path d="M0 0h430v430H0z"/></clipPath><clipPath id="d"><path d="M0 0h430v430H0z"/></clipPath><clipPath id="c"><path d="M0 0h430v430H0z"/></clipPath><clipPath id="b"><path d="M0 0h430v430H0z"/></clipPath></defs><g clip-path="url(#a)"><g clip-path="url(#b)" style="display:none"><g fill="none" style="display:none"><path class="secondary"/><path class="secondary"/></g><g fill="none" style="display:none"><path class="secondary"/><path class="secondary"/></g><g fill="none" style="display:none"><path class="secondary"/><path class="secondary"/></g><g fill="none" style="display:none"><path class="secondary"/><path class="secondary"/></g><g fill="none" style="display:none"><path class="secondary"/><path class="secondary"/></g><g style="display:none"><path class="primary"/><path class="primary" style="mix-blend-mode:multiply"/></g><g style="display:none"><path class="primary"/><path class="primary" style="mix-blend-mode:multiply"/></g><g style="display:none"><path class="primary"/><path class="primary" style="mix-blend-mode:multiply"/></g><g style="display:none"><path class="primary"/><path class="primary" style="mix-blend-mode:multiply"/></g><g style="display:none"><path class="primary"/><path class="primary" style="mix-blend-mode:multiply"/></g><g style="display:none"><path class="primary"/><path class="primary" style="mix-blend-mode:multiply"/></g><g style="display:none"><path class="primary"/><path class="primary" style="mix-blend-mode:multiply"/></g><g style="display:none"><path class="primary"/><path class="primary" style="mix-blend-mode:multiply"/></g><g style="display:none"><path class="primary"/><path class="primary" style="mix-blend-mode:multiply"/></g><g style="display:none"><path class="primary"/><path class="primary" style="mix-blend-mode:multiply"/></g><g style="display:none"><path class="tertiary"/><path class="tertiary" style="mix-blend-mode:multiply"/></g></g><g clip-path="url(#c)" style="display:block"><g fill="#4BB3FD" style="display:block"><path d="M268.792 344.476c.842-16.056 14.541-28.39 30.597-27.55 16.056.842 28.391 14.542 27.55 30.598-.842 16.056-14.541 28.39-30.597 27.55-16.056-.842-28.391-14.542-27.55-30.598" class="primary"/><path d="M-7.853 0c0-14.559 10.687-26.621 24.644-28.771a29.4 29.4 0 0 0-4.469-.342C-3.756-29.113-16.791-16.078-16.791 0s13.035 29.113 29.113 29.113c1.52 0 3.012-.117 4.469-.342C2.834 26.621-7.853 14.559-7.853 0" class="primary" opacity=".5" style="mix-blend-mode:multiply" transform="rotate(3 -6451.513 5625.229)"/></g><path fill="none" stroke="#3A3347" stroke-linecap="round" stroke-linejoin="round" stroke-width="7" d="M0 29.113v49.195" class="secondary" style="display:block" transform="rotate(145 94.386 219.958)"/><g fill="#4BB3FD" style="display:none"><path d="M324.433 185.979c0-16.078 13.035-29.113 29.113-29.113s29.113 13.035 29.113 29.113-13.035 29.113-29.113 29.113-29.113-13.035-29.113-29.113" class="primary"/><path d="M-7.853 0c0-14.559 10.687-26.621 24.644-28.771a29.4 29.4 0 0 0-4.469-.342C-3.756-29.113-16.791-16.078-16.791 0s13.035 29.113 29.113 29.113c1.52 0 3.012-.117 4.469-.342C2.834 26.621-7.853 14.559-7.853 0" class="primary" opacity=".5" style="mix-blend-mode:multiply" transform="translate(341.225 185.979)"/></g><path fill="none" stroke="#3A3347" stroke-linecap="round" stroke-linejoin="round" stroke-width="7" d="M0 29.113v49.195" class="secondary" style="display:none" transform="rotate(73 50.873 331.474)"/><g fill="#4BB3FD" style="display:block"><path d="M323.952 185.612c.352-16.074 13.668-28.82 29.743-28.47 16.074.352 28.82 13.668 28.469 29.743-.352 16.074-13.667 28.82-29.742 28.469-16.074-.352-28.82-13.667-28.47-29.742" class="primary"/><path d="M-8.666-.048c0-14.559 10.686-26.621 24.643-28.771a29.4 29.4 0 0 0-4.469-.342c-16.078 0-29.112 13.035-29.112 29.113S-4.57 29.064 11.508 29.064q2.282-.002 4.469-.341C2.02 26.573-8.666 14.511-8.666-.048" class="primary" opacity=".5" style="mix-blend-mode:multiply" transform="rotate(1.252 -8342.908 15722.956)"/></g><path fill="none" stroke="#3A3347" stroke-linecap="round" stroke-linejoin="round" stroke-width="7" d="M0 29.113v49.195" class="secondary" style="display:block" transform="rotate(73 50.873 331.474)"/><g fill="#4BB3FD" style="display:block"><path d="M103.459 344.186c.841-16.056 14.54-28.39 30.596-27.55 16.056.842 28.391 14.541 27.55 30.597-.842 16.056-14.541 28.391-30.597 27.55-16.056-.842-28.39-14.54-27.55-30.597" class="primary"/><path d="M-7.853 0c0-14.559 10.687-26.621 24.644-28.771a29.4 29.4 0 0 0-4.469-.342C-3.756-29.113-16.791-16.078-16.791 0s13.035 29.113 29.113 29.113c1.52 0 3.012-.117 4.469-.342C2.834 26.621-7.853 14.559-7.853 0" class="primary" opacity=".5" style="mix-blend-mode:multiply" transform="rotate(3 -6528.637 2468.18)"/></g><path fill="none" stroke="#3A3347" stroke-linecap="round" stroke-linejoin="round" stroke-width="7" d="M0 29.113v49.195" class="secondary" style="display:block" transform="rotate(-145 120.869 152.089)"/><g fill="#4BB3FD" style="display:block"><path d="M48.455 185.558c.28-16.076 13.541-28.881 29.617-28.6 16.075.28 28.88 13.54 28.6 29.616-.28 16.075-13.54 28.881-29.616 28.6s-28.881-13.54-28.6-29.616" class="primary"/><path d="M-7.853 0c0-14.559 10.687-26.621 24.644-28.771a29.4 29.4 0 0 0-4.469-.342C-3.756-29.113-16.791-16.078-16.791 0s13.035 29.113 29.113 29.113c1.52 0 3.012-.117 4.469-.342C2.834 26.621-7.853 14.559-7.853 0" class="primary" opacity=".5" style="mix-blend-mode:multiply" transform="rotate(1 -10615.568 3831.102)"/></g><path fill="none" stroke="#3A3347" stroke-linecap="round" stroke-linejoin="round" stroke-width="7" d="M0 29.113v49.195" class="secondary" style="display:block" transform="rotate(-73 164.383 40.573)"/><g fill="#4BB3FD" style="display:block"><path d="M186.057 83.949c0-16.078 13.035-29.113 29.113-29.113s29.113 13.035 29.113 29.113-13.035 29.113-29.113 29.113-29.113-13.035-29.113-29.113" class="primary"/><path d="M-7.853 0c0-14.559 10.687-26.621 24.644-28.771a29.4 29.4 0 0 0-4.469-.342C-3.756-29.113-16.791-16.078-16.791 0s13.035 29.113 29.113 29.113c1.52 0 3.012-.117 4.469-.342C2.834 26.621-7.853 14.559-7.853 0" class="primary" opacity=".5" style="mix-blend-mode:multiply" transform="translate(202.848 83.949)"/></g><path fill="none" stroke="#3A3347" stroke-linecap="round" stroke-linejoin="round" stroke-width="7" d="M0 29.113v49.195" class="secondary" style="display:block" transform="translate(215.255 83.993)"/><g fill="#2CA58D" style="display:block"><path d="M280.974 228.02c0 36.295-29.424 65.719-65.719 65.719s-65.719-29.424-65.719-65.719 29.424-65.719 65.719-65.719 65.719 29.424 65.719 65.719" class="tertiary"/><path d="M-17.726 0c0-32.865 24.125-60.093 55.63-64.947a66 66 0 0 0-10.089-.772C-8.48-65.719-37.904-36.295-37.904 0S-8.48 65.719 27.815 65.719c3.431 0 6.8-.265 10.089-.772C6.399 60.093-17.726 32.864-17.726 0" class="tertiary" opacity=".5" style="mix-blend-mode:multiply" transform="translate(187.44 228.02)"/></g></g><g clip-path="url(#d)" style="display:none"><path fill="none" class="secondary" style="display:none"/><path fill="none" class="secondary" style="display:none"/><path fill="none" class="secondary" style="display:none"/><path fill="none" class="secondary" style="display:none"/><path fill="none" class="secondary" style="display:none"/><g style="display:none"><path class="primary"/><path class="primary" style="mix-blend-mode:multiply"/></g><g style="display:none"><path class="primary"/><path class="primary" style="mix-blend-mode:multiply"/></g><g style="display:none"><path class="primary"/><path class="primary" style="mix-blend-mode:multiply"/></g><g style="display:none"><path class="primary"/><path class="primary" style="mix-blend-mode:multiply"/></g><g style="display:none"><path class="primary"/><path class="primary" style="mix-blend-mode:multiply"/></g><g style="display:none"><path class="tertiary"/><path class="tertiary" style="mix-blend-mode:multiply"/></g></g></g></svg>