<svg xmlns="http://www.w3.org/2000/svg" width="430" height="430" style="width:100%;height:100%;transform:translate3d(0,0,0);content-visibility:visible" viewBox="0 0 430 430"><defs><clipPath id="c"><path d="M0 0h430v430H0z"/></clipPath><clipPath id="g"><path d="M0 0h430v430H0z"/></clipPath><clipPath id="f"><path d="M0 0h430v430H0z"/></clipPath><clipPath id="d"><path d="M0 0h430v430H0z"/></clipPath><path id="a" style="display:none"/><path id="b" style="display:none"/><mask id="h" mask-type="alpha"><use xmlns:ns1="http://www.w3.org/1999/xlink" ns1:href="#a"/></mask><mask id="e" mask-type="alpha"><use xmlns:ns2="http://www.w3.org/1999/xlink" ns2:href="#b"/></mask></defs><g clip-path="url(#c)"><g clip-path="url(#d)" style="display:none"><path class="primary" style="display:none"/><path class="primary" style="mix-blend-mode:multiply;display:none"/><path class="primary" style="display:none"/><g mask="url(#e)" style="mix-blend-mode:multiply;display:none"><path class="primary"/></g><path class="primary" style="display:none"/><path class="primary" style="mix-blend-mode:multiply;display:none"/></g><g clip-path="url(#f)" style="display:block"><path fill="#4BB3FD" d="M115.5-61c0 27.832-8.082 50.404-31.406 71.138C68.5 24-12.078 96-12.078 96H122a3 3 0 0 1 3 3v59a3 3 0 0 1-3 3h-244a3 3 0 0 1-3-3V97.347c0-.857.282-1.598.922-2.167L16.19-29.5C27-39.108 35.5-46.311 35.5-61c0-19.33-16.789-35-37.5-35s-37.5 15.67-37.5 35v2a3 3 0 0 1-3 3h-79a3 3 0 0 1-3-3v-2c0-55.228 54.845-100 122.5-100s117.5 44.772 117.5 100z" class="primary" style="display:block" transform="translate(219.5 211)"/><g opacity=".5" style="mix-blend-mode:multiply;display:block"><path fill="#4BB3FD" d="M130 150v5H98a3 3 0 0 1-3-3v-2c0-55.228 54.845-100 122.5-100 5.961 0 11.783.347 17.445 1.019C175.607 57.97 130 99.637 130 150zM97.5 372h32v-65l141.19-125.5.744-.661C281.887 171.555 290 164.351 290 150c0-19.33-16.789-35-37.5-35-6.32 0-12.276 1.46-17.5 4.037 11.895 5.868 20 17.532 20 30.963 0 14.351-8.113 21.555-18.566 30.839l-.744.661L95.507 306.105a3 3 0 0 0-1.007 2.242V369a3 3 0 0 0 3 3z" class="primary" opacity="1"/></g></g><g clip-path="url(#g)" style="display:none"><path class="primary" style="display:none"/><g mask="url(#h)" style="mix-blend-mode:multiply;display:none"><path class="primary"/></g><path class="primary" style="display:none"/><path class="primary" style="mix-blend-mode:multiply;display:none"/></g></g></svg>