<svg xmlns="http://www.w3.org/2000/svg" width="430" height="430" style="width:100%;height:100%;transform:translate3d(0,0,0);content-visibility:visible" viewBox="0 0 430 430"><defs><clipPath id="a"><path d="M0 0h430v430H0z"/></clipPath><clipPath id="j"><path d="M0 0h430v430H0z"/></clipPath><clipPath id="i"><path d="M0 0h430v430H0z"/></clipPath><clipPath id="f"><path d="M0 0h430v430H0z"/></clipPath><clipPath id="d"><path d="M0 0h430v430H0z"/></clipPath><clipPath id="e"><path d="M0 0h430v430H0z"/></clipPath><clipPath id="b"><path d="M0 0h430v430H0z"/></clipPath><clipPath id="c"><path d="M0 0h430v430H0z"/></clipPath><mask id="h"><path fill="#fff" d="M0 0h430v430H0z"/><path d="M75.803-85.281h-160v229h160z"/></mask><mask id="g"><path fill="#fff" d="M0 0h430v430H0z"/><path d="M74.803-148.047h-154v233h154z"/></mask></defs><g clip-path="url(#a)"><g clip-path="url(#b)" style="display:none"><g clip-path="url(#c)" style="display:none"><g style="display:none"><path class="primary"/><path class="primary" style="mix-blend-mode:multiply"/></g><g style="display:none"><path class="primary"/><path class="primary" style="mix-blend-mode:multiply"/></g><g style="display:none"><path class="primary"/><path class="primary" style="mix-blend-mode:multiply"/></g></g></g><g clip-path="url(#d)" style="display:none"><g clip-path="url(#e)" style="display:none"><g style="display:none"><path class="primary"/><path class="primary" style="mix-blend-mode:multiply"/></g><g style="display:none"><path class="primary"/><path class="primary" style="mix-blend-mode:multiply"/></g><g style="display:none"><path class="primary"/><path class="primary" style="mix-blend-mode:multiply"/></g></g></g><g clip-path="url(#f)" style="display:none"><g style="display:none"><path class="primary"/><path class="primary" style="mix-blend-mode:multiply"/></g><g style="display:none"><path class="primary"/><path class="primary" style="mix-blend-mode:multiply"/></g><g style="display:none"><path class="primary"/><path class="primary" style="mix-blend-mode:multiply"/></g><g style="display:none"><path class="primary"/><path class="primary" style="mix-blend-mode:multiply"/></g><path class="primary" style="display:none"/><g mask="url(#g)" style="display:none"><path class="primary"/><path class="primary" style="mix-blend-mode:multiply"/></g><g fill="none" style="display:none"><path class="primary"/><path class="primary"/></g><path class="primary" style="display:none"/><g mask="url(#h)" style="display:none"><path class="primary"/><path class="primary" style="mix-blend-mode:multiply"/></g><g fill="none" style="display:none"><path class="primary"/><path class="primary"/></g></g><g clip-path="url(#i)" style="display:block"><path fill="#2CA58D" d="M-38.5-129h77a3 3 0 0 1 3 3v252a3 3 0 0 1-3 3h-77a3 3 0 0 1-3-3v-252a3 3 0 0 1 3-3" class="primary" style="display:block" transform="translate(302.5 215.5)"/><g opacity=".5" style="mix-blend-mode:multiply;display:block"><path fill="#2CA58D" d="M261 300.5h83V342a3 3 0 0 1-3 3h-77a3 3 0 0 1-3-3z" class="primary" opacity="1"/></g><path fill="#2CA58D" d="M-38.5-129h77a3 3 0 0 1 3 3v252a3 3 0 0 1-3 3h-77a3 3 0 0 1-3-3v-252a3 3 0 0 1 3-3" class="primary" style="display:block" transform="translate(127.5 215.5)"/><g opacity=".5" style="mix-blend-mode:multiply;display:block"><path fill="#2CA58D" d="M86 300.5h83V342a3 3 0 0 1-3 3H89a3 3 0 0 1-3-3z" class="primary" opacity="1"/></g></g><g clip-path="url(#j)" style="display:none"><g style="display:none"><path class="primary"/><path class="primary" style="mix-blend-mode:multiply"/></g><g style="display:none"><path class="primary"/><path class="primary" style="mix-blend-mode:multiply"/></g></g></g></svg>