<svg xmlns="http://www.w3.org/2000/svg" width="430" height="430" style="width:100%;height:100%;transform:translate3d(0,0,0);content-visibility:visible" viewBox="0 0 430 430"><defs><clipPath id="a"><path d="M0 0h430v430H0z"/></clipPath><clipPath id="d"><path d="M0 0h430v430H0z"/></clipPath><clipPath id="c"><path d="M0 0h430v430H0z"/></clipPath><clipPath id="b"><path d="M0 0h430v430H0z"/></clipPath></defs><g clip-path="url(#a)"><g clip-path="url(#b)" style="display:none"><g style="display:none"><path fill="none" class="primary"/><path class="primary"/><path fill="none" class="primary"/><path class="primary"/><path fill="none" class="primary"/><path class="primary"/><path class="primary" style="mix-blend-mode:multiply"/><path class="secondary"/><path fill="none" class="secondary"/><path class="secondary" style="mix-blend-mode:multiply"/></g><g style="display:none"><path fill="none" class="primary"/><path class="primary"/><path fill="none" class="primary"/><path class="primary"/><path fill="none" class="primary"/><path class="primary"/><path class="primary" style="mix-blend-mode:multiply"/><path class="secondary"/><path fill="none" class="secondary"/><path class="secondary" style="mix-blend-mode:multiply"/></g><g style="display:none"><path class="secondary"/><path class="secondary" style="mix-blend-mode:multiply"/></g></g><g clip-path="url(#c)" style="display:block"><g style="display:block"><path fill="none" stroke="#F9C9C0" stroke-linecap="round" stroke-linejoin="round" stroke-width="1.06" d="m325.797 275.248-51.408 30.518-.042 43.366 66.027 8.2-.001-40.25-14.576-41.834z" class="primary"/><path fill="#F9C9C0" d="m325.797 275.248-51.408 30.518-.042 43.366 66.027 8.2-.001-40.25-14.576-41.834z" class="primary"/><path fill="none" stroke="#F9C9C0" stroke-linecap="round" stroke-linejoin="round" stroke-width="1.06" d="m325.403 280.574 33.781-40.037v-86.545c0-9.522 7.72-17.242 17.242-17.242 0 0 0 0 0 0 9.522 0 18.741 7.72 18.741 17.242V254.45l-2.38 2.775-52.767 59.758.11 23.785" class="primary"/><path fill="#F9C9C0" d="m325.403 280.574 33.781-40.037v-86.545c0-9.522 7.72-17.242 17.242-17.242 9.522 0 18.741 7.72 18.741 17.242V254.45l-2.38 2.775-52.767 59.758.11 23.785" class="primary"/><path fill="none" stroke="#F9C9C0" stroke-linecap="round" stroke-linejoin="round" stroke-width="1.06" d="m274.537 340.337.062-55.332 51.039-54.72c3.2-3.973 33.487-14.41 33.546 10.252L325.427 280.5" class="primary"/><path fill="#F9C9C0" d="m274.537 340.337.062-55.332 51.039-54.72c3.2-3.973 33.487-14.41 33.546 10.252L325.427 280.5" class="primary"/><path fill="#F28BA8" d="m278.352 390.556 70.678-.04a5.3 5.3 0 0 0 5.3-5.3v-39.08a5.3 5.3 0 0 0-5.3-5.3l-80.471-.04c-3.801 0-6.367 3.883-4.875 7.38l9.793 39.159a5.3 5.3 0 0 0 4.875 3.221z" class="secondary"/><path fill="none" stroke="#F28BA8" stroke-linecap="round" stroke-linejoin="round" stroke-width="3.18" d="m278.352 390.556 70.678-.04a5.3 5.3 0 0 0 5.3-5.3v-39.08a5.3 5.3 0 0 0-5.3-5.3l-80.471-.04c-3.801 0-6.367 3.883-4.875 7.38l9.793 39.159a5.3 5.3 0 0 0 4.875 3.221z" class="secondary"/><path fill="#F9C9C0" d="M413.814 186.523c0-8.361-6.212-15.273-14.283-16.396a16.482 16.482 0 0 1 4.842 11.687v84.511a25.206 25.206 0 0 1-6.363 16.735l-45.752 51.494v26.199h9.441v-21.49l45.752-51.495a25.2 25.2 0 0 0 6.363-16.734v-84.511zm-68.971 121.331c4.987-5.525 20.976-24.053 34.695-40.991.196-9.241-3.451-12.617-9.447-14.263-4.537-1.246-10.529-.062-14.899 1.222 6.971.852 12.484 5.422 11.953 13.395a10303.192 10303.192 0 0 1-30.12 33.601c-3.045 3.38-.632 8.758 3.923 8.758 1.49 0 2.898-.618 3.895-1.722z" class="primary" opacity=".5" style="mix-blend-mode:multiply" transform="matrix(1.06 0 0 1.06 -43.143 -42.954)"/><path fill="#F28BA8" d="M360.041 360.782h9.797a6.544 6.544 0 0 1 6.544 6.545v36.259a6.544 6.544 0 0 1-6.544 6.545h-9.797a6.544 6.544 0 0 0 6.544-6.545v-36.259a6.544 6.544 0 0 0-6.544-6.545z" class="secondary" opacity=".5" style="mix-blend-mode:multiply" transform="matrix(1.06 0 0 1.06 -43.143 -42.954)"/></g><g style="display:block"><path fill="none" stroke="#F9C9C0" stroke-linecap="round" stroke-linejoin="round" stroke-width="1.06" d="m104.203 275.248 51.408 32.018-.459 42.617-65.276 7.2v-40.25l14.327-41.585z" class="primary"/><path fill="#F9C9C0" d="m104.203 275.248 51.408 32.018-.459 42.617-65.276 7.2v-40.25l14.327-41.585z" class="primary"/><path fill="none" stroke="#F9C9C0" stroke-linecap="round" stroke-linejoin="round" stroke-width="1.06" d="m104.597 280.574-33.781-40.037v-86.545c0-9.522-7.72-17.242-17.242-17.242 0 0 0 0 0 0-9.522 0-18.741 7.72-18.741 17.242V254.45l2.38 2.775 52.767 59.758-.11 23.785" class="primary"/><path fill="#F9C9C0" d="m104.597 280.574-33.781-40.037v-86.545c0-9.522-7.72-17.242-17.242-17.242-9.522 0-18.741 7.72-18.741 17.242V254.45l2.38 2.775 52.767 59.758-.11 23.785" class="primary"/><path fill="none" stroke="#F9C9C0" stroke-linecap="round" stroke-linejoin="round" stroke-width="1.06" d="m155.463 340.337-.062-55.332-51.039-54.72c-3.2-3.973-33.487-14.41-33.546 10.252l33.757 39.964" class="primary"/><path fill="#F9C9C0" d="m155.463 340.337-.062-55.332-51.039-54.72c-3.2-3.973-33.487-14.41-33.546 10.252l33.757 39.964" class="primary"/><path fill="#F9C9C0" d="M413.814 186.523c0-8.361-6.212-15.273-14.283-16.396a16.482 16.482 0 0 1 4.842 11.687v84.511a25.206 25.206 0 0 1-6.363 16.735l-45.752 51.494v26.199h9.441v-21.49l45.752-51.495a25.2 25.2 0 0 0 6.363-16.734v-84.511zm-68.971 121.331c4.987-5.525 20.976-24.053 34.695-40.991.196-9.241-3.451-12.617-9.447-14.263-4.537-1.246-10.529-.062-14.899 1.222 6.971.852 12.484 5.422 11.953 13.395a10303.192 10303.192 0 0 1-30.12 33.601c-3.045 3.38-.632 8.758 3.923 8.758 1.49 0 2.898-.618 3.895-1.722z" class="primary" opacity=".5" style="mix-blend-mode:multiply" transform="matrix(-1.06 0 0 1.06 473.143 -42.954)"/><path fill="#F28BA8" d="m151.648 390.556-70.678-.04a5.3 5.3 0 0 1-5.3-5.3v-39.08a5.3 5.3 0 0 1 5.3-5.3l80.471-.04c3.801 0 6.367 3.883 4.875 7.38l-9.793 39.159a5.3 5.3 0 0 1-4.875 3.221z" class="secondary"/><path fill="none" stroke="#F28BA8" stroke-linecap="round" stroke-linejoin="round" stroke-width="3.18" d="m151.648 390.556-70.678-.04a5.3 5.3 0 0 1-5.3-5.3v-39.08a5.3 5.3 0 0 1 5.3-5.3l80.471-.04c3.801 0 6.367 3.883 4.875 7.38l-9.793 39.159a5.3 5.3 0 0 1-4.875 3.221z" class="secondary"/><path fill="#F28BA8" d="M360.041 360.782h9.797a6.544 6.544 0 0 1 6.544 6.545v36.259a6.544 6.544 0 0 1-6.544 6.545h-9.797a6.544 6.544 0 0 0 6.544-6.545v-36.259a6.544 6.544 0 0 0-6.544-6.545z" class="secondary" opacity=".5" style="mix-blend-mode:multiply" transform="matrix(-1.06 0 0 1.06 473.143 -42.954)"/></g><g fill="#F28BA8" style="display:block"><path d="M305.324 148.755C317.758 136.321 324 120.015 324 103.734c0-16.307-6.249-32.607-18.676-45.047-10.612-10.622-24.04-16.712-37.88-18.269-18.594-2.091-37.933 3.998-52.189 18.269l-.076.076-.077-.076c-12.434-12.434-28.74-18.677-45.021-18.677-16.307 0-32.607 6.25-45.047 18.677-24.893 24.868-24.893 65.2 0 90.068l90.145 90.145 90.145-90.145z" class="secondary"/><path d="m196.635 29.719-.033-.032c-12.434-12.434-28.74-18.677-45.021-18.677-16.307 0-32.607 6.25-45.047 18.677-24.893 24.868-24.893 65.2 0 90.068l90.145 90.145" class="secondary" opacity=".5" style="mix-blend-mode:multiply" transform="translate(18.5 29)"/></g></g><g clip-path="url(#d)" style="display:none"><g style="display:none"><path class="secondary"/><path class="secondary" style="mix-blend-mode:multiply"/></g><g style="display:none"><path class="primary"/><path fill="none" class="primary"/><path class="primary"/><path fill="none" class="primary"/><path fill="none" class="primary"/><path class="primary"/><path class="primary" style="mix-blend-mode:multiply"/><path class="secondary"/><path fill="none" class="secondary"/><path class="secondary" style="mix-blend-mode:multiply"/></g><g style="display:none"><path class="primary"/><path fill="none" class="primary"/><path class="primary"/><path fill="none" class="primary"/><path fill="none" class="primary"/><path class="primary"/><path class="primary" style="mix-blend-mode:multiply"/><path class="secondary"/><path fill="none" class="secondary"/><path class="secondary" style="mix-blend-mode:multiply"/></g></g></g></svg>