<svg xmlns="http://www.w3.org/2000/svg" width="430" height="430" style="width:100%;height:100%;transform:translate3d(0,0,0);content-visibility:visible" viewBox="0 0 430 430"><defs><clipPath id="i"><path d="M0 0h430v430H0z"/></clipPath><clipPath id="t"><path d="M0 0h430v430H0z"/></clipPath><clipPath id="u"><path d="M0 0h430v430H0z"/></clipPath><clipPath id="m"><path d="M0 0h430v430H0z"/></clipPath><clipPath id="q"><path d="M0 0h430v430H0z"/></clipPath><clipPath id="r"><path d="M0 0h430v430H0z"/></clipPath><clipPath id="n"><path d="M0 0h430v430H0z"/></clipPath><clipPath id="o"><path d="M0 0h430v430H0z"/></clipPath><clipPath id="j"><path d="M0 0h430v430H0z"/></clipPath><clipPath id="k"><path d="M0 0h430v430H0z"/></clipPath><filter id="a" width="100%" height="100%" x="0%" y="0%" filterUnits="objectBoundingBox"><feComponentTransfer in="SourceGraphic"><feFuncA tableValues="1.0 0.0" type="table"/></feComponentTransfer></filter><filter id="c" width="100%" height="100%" x="0%" y="0%" filterUnits="objectBoundingBox"><feComponentTransfer in="SourceGraphic"><feFuncA tableValues="1.0 0.0" type="table"/></feComponentTransfer></filter><filter id="e" width="100%" height="100%" x="0%" y="0%" filterUnits="objectBoundingBox"><feComponentTransfer in="SourceGraphic"><feFuncA tableValues="1.0 0.0" type="table"/></feComponentTransfer></filter><filter id="g" width="100%" height="100%" x="0%" y="0%" filterUnits="objectBoundingBox"><feComponentTransfer in="SourceGraphic"><feFuncA tableValues="1.0 0.0" type="table"/></feComponentTransfer></filter><path id="b" style="display:none"/><path id="d" fill="#FFC738" d="M169.824-62.794 58.082-83.386.505-95.942l-83.274 12.165-86.878 18.689 17.815 71.934L-130 95h260l22.11-87.607.378-1.497.314-1.246z" class="tertiary" style="display:block" transform="translate(250 189.5)"/><path id="f" fill="#FFC738" d="m-2.176-92.294-81.742 9.001-85.077 18.409 17.476 74.33-18.628-73.476 18.982 73.571L-130 95h260l21.735-85.928 19.985-76.169L57.458-83.75z" class="tertiary" style="display:block" transform="translate(250 189.5)"/><path id="h" class="tertiary" style="display:none"/><mask id="v" mask-type="alpha"><g filter="url(#a)"><path fill="#fff" d="M0 0h430v430H0z" opacity="0"/><use xmlns:ns1="http://www.w3.org/1999/xlink" ns1:href="#b"/></g></mask><mask id="s" mask-type="alpha"><g filter="url(#c)"><path fill="#fff" d="M0 0h430v430H0z" opacity="0"/><use xmlns:ns2="http://www.w3.org/1999/xlink" ns2:href="#d"/></g></mask><mask id="p" mask-type="alpha"><g filter="url(#e)"><path fill="#fff" d="M0 0h430v430H0z" opacity="0"/><use xmlns:ns3="http://www.w3.org/1999/xlink" ns3:href="#f"/></g></mask><mask id="l" mask-type="alpha"><g filter="url(#g)"><path fill="#fff" d="M0 0h430v430H0z" opacity="0"/><use xmlns:ns4="http://www.w3.org/1999/xlink" ns4:href="#h"/></g></mask></defs><g clip-path="url(#i)"><g clip-path="url(#j)" style="display:none"><g style="display:none"><path class="secondary"/><path class="secondary" style="mix-blend-mode:multiply"/></g><g style="display:none"><path class="secondary"/><path class="secondary" style="mix-blend-mode:multiply"/></g><path class="primary" style="display:none"/><path class="primary" style="mix-blend-mode:multiply;display:none"/><g style="display:none"><path class="primary"/><path class="primary"/></g><path class="primary" style="mix-blend-mode:multiply;display:none"/><path class="tertiary" style="display:none"/><path class="tertiary" style="mix-blend-mode:multiply;display:none"/><g clip-path="url(#k)" style="display:none"><path class="secondary" style="display:none"/><g mask="url(#l)" style="mix-blend-mode:multiply;display:none"><path class="secondary"/></g></g><path class="primary" style="display:none"/><path class="primary" style="mix-blend-mode:multiply;display:none"/><g style="display:none"><path class="primary"/><path class="primary"/></g><path class="primary" style="mix-blend-mode:multiply;display:none"/><g style="display:none"><path class="primary"/><path class="primary"/></g><path class="primary" style="mix-blend-mode:multiply;display:none"/><g style="display:none"><path class="primary"/><path class="primary"/></g><path class="primary" style="mix-blend-mode:multiply;display:none"/></g><g clip-path="url(#m)" style="display:block"><g clip-path="url(#n)" style="display:block"><g fill="#FFC738" style="display:block"><path d="m285 215-70-105-70 105" class="secondary"/><path fill-opacity=".5" d="M70 10 0-95-70 10" class="secondary" style="mix-blend-mode:multiply" transform="translate(215 205)"/></g><g fill="#FFC738" style="display:block"><path d="M366.456 214.677 385 140l-100 75" class="secondary"/><path fill-opacity=".5" d="M151.456 9.677 170-65 70 10" class="secondary" style="mix-blend-mode:multiply" transform="translate(215 205)"/></g><path fill="#F24C00" d="M0-20c11.038 0 20 8.962 20 20S11.038 20 0 20s-20-8.962-20-20 8.962-20 20-20" class="primary" style="display:block" transform="translate(215 100.5)"/><g opacity=".5" style="mix-blend-mode:multiply;display:block"><path fill="#F24C00" d="M195.139 100.058c0 11.156 9.216 20.199 20.585 20.199 8.274 0 13.54-5.171 17.694-12.109A19.9 19.9 0 0 1 225 110c-11.046 0-20-8.954-20-20 0-2.657.517-5.193 1.458-7.512-5.445 2.597-11.319 9.097-11.319 17.57" class="primary" opacity="1"/></g><g style="display:none"><path class="primary"/><path class="primary"/></g><path class="primary" style="mix-blend-mode:multiply;display:none"/><path fill="#EBE6EF" d="M130 20v-36.25s-.033-2.101-.75-3.125c-.502-.717-1.875-.625-1.875-.625h-254.5s-1.869.436-2.375 1.25c-.814 1.309-.5 3.375-.5 3.375V20z" class="tertiary" style="display:block" transform="matrix(1 0 0 -1 215 319.312)"/><g opacity=".5" style="mix-blend-mode:multiply;display:block"><path fill="#EBE6EF" d="M125 299.75H85v36.125s-.098 1.307.75 2.281c.739.848 2.625 1.125 2.625 1.125H125z" class="tertiary" opacity="1"/></g><g clip-path="url(#o)" style="display:block"><path fill="#FFC738" d="M-2.176-92.294-70.668 9.957l-98.327-74.841 17.476 74.33-18.628-73.476 18.982 73.571L-130 95h260l21.735-85.928 19.985-76.169L70.708 9.5z" class="secondary" style="display:block" transform="translate(215 205)"/><g mask="url(#p)" opacity=".5" style="mix-blend-mode:multiply;display:block"><path fill="#FFC738" d="m212.824 112.706-68.492 102.251-98.327-74.841 17.476 74.33-18.628-73.476 18.982 73.571L85 300h260l21.735-85.928 19.985-76.169L285.708 214.5z" class="secondary" opacity="1"/></g></g><path class="primary" style="display:none"/><path class="primary" style="mix-blend-mode:multiply;display:none"/><g fill="#F24C00" style="display:block"><path d="M385 115c11.038 0 20 8.962 20 20s-8.962 20-20 20-20-8.962-20-20 8.962-20 20-20" class="primary"/><path d="M385 115c11.038 0 20 8.962 20 20s-8.962 20-20 20-20-8.962-20-20 8.962-20 20-20" class="primary"/></g><g opacity=".5" style="mix-blend-mode:multiply;display:block"><path fill="#F24C00" d="M365.639 134.745c0 11.156 9.216 20.199 20.585 20.199 8.274 0 13.54-5.171 17.694-12.109a19.9 19.9 0 0 1-8.418 1.852c-11.046 0-20-8.954-20-20 0-2.657.517-5.193 1.458-7.512-5.445 2.597-11.319 9.097-11.319 17.57" class="primary" opacity="1"/></g><g fill="#F24C00" style="display:block"><path d="M45 115c11.038 0 20 8.962 20 20s-8.962 20-20 20-20-8.962-20-20 8.962-20 20-20" class="primary"/><path d="M45 115c11.038 0 20 8.962 20 20s-8.962 20-20 20-20-8.962-20-20 8.962-20 20-20" class="primary"/></g><g opacity=".5" style="mix-blend-mode:multiply;display:block"><path fill="#F24C00" d="M25.003 135.382c0 11.156 9.216 20.199 20.585 20.199 8.274 0 13.54-5.171 17.694-12.109a19.9 19.9 0 0 1-8.418 1.852c-11.046 0-20-8.954-20-20 0-2.657.517-5.193 1.458-7.512-5.445 2.597-11.319 9.097-11.319 17.57" class="primary" opacity="1"/></g><g fill="#F24C00" style="display:block"><path d="M215 75c13.797 0 25 11.203 25 25s-11.203 25-25 25-25-11.203-25-25 11.203-25 25-25" class="primary"/><path d="M215 75c13.797 0 25 11.203 25 25s-11.203 25-25 25-25-11.203-25-25 11.203-25 25-25" class="primary"/></g><g opacity=".5" style="mix-blend-mode:multiply;display:block"><path fill="#F24C00" d="M191.045 98.788c0 14.125 11.669 25.575 26.064 25.575 9.527 0 17.027-6.417 20.902-13.332-3.24 1.505-8.234 3.096-11.929 3.096-13.573 0-24.575-11.003-24.575-24.576 0-3.265.88-6.605 2.542-12.355-6.69 3.191-13.004 10.865-13.004 21.592" class="primary" opacity="1"/></g></g><g clip-path="url(#q)" style="display:none"><g fill="#FFC738" style="display:block"><path d="M144.5 215 45 139.5 63.75 215" class="secondary"/><path fill-opacity=".5" d="M-70.5 10-170-65.5l18.75 75.5" class="secondary" style="mix-blend-mode:multiply" transform="translate(215 205)"/></g><g fill="#FFC738" style="display:block"><path d="M284.956 214.853 215 109.177l-69.75 106.176" class="secondary"/><path fill-opacity=".5" d="M69.956 9.853 0-95.823-69.75 10.353" class="secondary" style="mix-blend-mode:multiply" transform="translate(215 205)"/></g><path class="primary" style="display:none"/><path class="primary" style="mix-blend-mode:multiply;display:none"/><g style="display:none"><path class="primary"/><path class="primary"/></g><path class="primary" style="mix-blend-mode:multiply;display:none"/><path fill="#EBE6EF" d="M130 20v-36.25s-.033-2.101-.75-3.125c-.502-.717-1.875-.625-1.875-.625h-254.5s-1.869.436-2.375 1.25c-.814 1.309-.5 3.375-.5 3.375V20z" class="tertiary" style="display:block" transform="matrix(1 0 0 -1 215 319.312)"/><g opacity=".5" style="mix-blend-mode:multiply;display:block"><path fill="#EBE6EF" d="M125 299.75H85v36.125s-.098 1.307.75 2.281c.739.848 2.625 1.125 2.625 1.125H125z" class="tertiary" opacity="1"/></g><g clip-path="url(#r)" style="display:block"><path fill="#FFC738" d="M169.824-62.794 69.832 9.864.505-95.942-71.019 9.473l-98.628-74.561 17.815 71.934L-130 95h260l22.11-87.607.378-1.497.314-1.246z" class="secondary" style="display:block" transform="translate(215 205)"/><g mask="url(#s)" opacity=".5" style="mix-blend-mode:multiply;display:block"><path fill="#FFC738" d="m384.824 142.206-99.992 72.658-69.327-105.806-71.524 105.415-98.628-74.561 17.815 71.934L85 300h260l22.11-87.607.378-1.497.314-1.246z" class="secondary" opacity="1"/></g></g><path fill="#F24C00" d="M0-20c11.038 0 20 8.962 20 20S11.038 20 0 20s-20-8.962-20-20 8.962-20 20-20" class="primary" style="display:block" transform="translate(45 135.5)"/><g opacity=".5" style="mix-blend-mode:multiply;display:block"><path fill="#F24C00" d="M25.139 135.058c0 11.156 9.216 20.199 20.585 20.199 8.274 0 13.54-5.171 17.694-12.109A19.9 19.9 0 0 1 55 145c-11.046 0-20-8.954-20-20 0-2.657.517-5.193 1.458-7.512-5.445 2.597-11.319 9.097-11.319 17.57" class="primary" opacity="1"/></g><g style="display:none"><path class="primary"/><path class="primary"/></g><path class="primary" style="mix-blend-mode:multiply;display:none"/><g fill="#F24C00" style="display:block"><path d="M215 75c13.797 0 25 11.203 25 25s-11.203 25-25 25-25-11.203-25-25 11.203-25 25-25" class="primary"/><path d="M215 75c13.797 0 25 11.203 25 25s-11.203 25-25 25-25-11.203-25-25 11.203-25 25-25" class="primary"/></g><g opacity=".5" style="mix-blend-mode:multiply;display:block"><path fill="#F24C00" d="M190.409 99.425c0 14.125 11.669 25.575 26.064 25.575 9.527 0 17.027-6.417 20.902-13.332-3.24 1.505-8.234 3.096-11.929 3.096-13.573 0-24.575-11.003-24.575-24.576 0-3.265.88-6.605 2.542-12.355-6.69 3.191-13.004 10.865-13.004 21.592" class="primary" opacity="1"/></g><g fill="#F24C00" style="display:block"><path d="M385 115c11.038 0 20 8.962 20 20s-8.962 20-20 20-20-8.962-20-20 8.962-20 20-20" class="primary"/><path d="M385 115c11.038 0 20 8.962 20 20s-8.962 20-20 20-20-8.962-20-20 8.962-20 20-20" class="primary"/></g><g opacity=".5" style="mix-blend-mode:multiply;display:block"><path fill="#F24C00" d="M365.639 134.745c0 11.156 9.216 20.199 20.585 20.199 8.274 0 13.54-5.171 17.694-12.109a19.9 19.9 0 0 1-8.418 1.852c-11.046 0-20-8.954-20-20 0-2.657.517-5.193 1.458-7.512-5.445 2.597-11.319 9.097-11.319 17.57" class="primary" opacity="1"/></g></g></g><g clip-path="url(#t)" style="display:none"><g clip-path="url(#u)" style="display:none"><path class="tertiary" style="display:none"/><path class="tertiary" style="mix-blend-mode:multiply;display:none"/><path class="secondary" style="display:none"/><g mask="url(#v)" style="display:none"><path class="secondary"/><path class="secondary" style="mix-blend-mode:multiply"/></g><path class="primary" style="display:none"/><path class="primary" style="mix-blend-mode:multiply;display:none"/><path class="primary" style="display:none"/><path class="primary" style="mix-blend-mode:multiply;display:none"/></g><g style="display:none"><path class="primary"/><path class="primary"/></g><path class="primary" style="mix-blend-mode:multiply;display:none"/></g></g></svg>