<svg xmlns="http://www.w3.org/2000/svg" width="430" height="430" style="width:100%;height:100%;transform:translate3d(0,0,0);content-visibility:visible" viewBox="0 0 430 430"><defs><clipPath id="a"><path d="M0 0h430v430H0z"/></clipPath><clipPath id="c"><path d="M0 0h430v430H0z"/></clipPath><clipPath id="b"><path d="M0 0h430v430H0z"/></clipPath></defs><g clip-path="url(#a)"><g clip-path="url(#b)" style="display:block"><g fill="#4BB3FD" style="display:block"><path d="m83.765 87.328 4.75 193.586 64.133 61.758 192.4-191.211-62.946-67.696-198.337 3.563z" class="secondary"/><path d="m-131.235-127.672 4.75 193.586 64.133 61.758 192.4-191.211-62.946-67.696-198.337 3.563z" class="secondary" style="mix-blend-mode:multiply" transform="translate(215 215)"/></g><g fill="#4BB3FD" style="display:block"><path d="M348.432 348.432H146.5l-63.938-63.611" class="secondary"/><path d="M100.966 100.966h-201.932l-63.938-63.611" class="secondary" style="mix-blend-mode:multiply" transform="translate(247.466 247.466)"/></g><path class="secondary" style="display:none"/><g fill="#4BB3FD" style="display:block"><path d="m146.537 348.187-64.932-64.933V80.696l64.932 64.933v202.558z" class="secondary"/><path d="m-66.213 133.437-64.932-64.933v-202.558l64.932 64.933v202.558z" class="secondary" style="mix-blend-mode:multiply" transform="translate(212.75 214.75)"/></g><path fill="#4BB3FD" d="M135.72 133.437H-66.213l.037-203.183h201.933c0 67.311-.037 135.872-.037 203.183z" class="secondary" style="display:block" transform="translate(212.75 214.75)"/><g fill="#4BB3FD" style="display:block"><path d="M81.187 80.453H283.12l65.312 64.979H146.5L81.187 80.453z" class="secondary"/><path fill-opacity=".5" d="M-166.279 35.987H35.654l65.312 64.979h-201.932l-65.313-64.979z" class="secondary" style="mix-blend-mode:multiply" transform="translate(247.466 44.466)"/></g><g style="display:none"><path class="secondary"/><path class="secondary" style="mix-blend-mode:multiply"/></g><path class="secondary" style="display:none"/><g style="display:none"><path class="secondary"/><path class="secondary" style="mix-blend-mode:multiply"/></g><path class="secondary" style="display:none"/><g style="display:none"><path class="secondary"/><path class="secondary" style="mix-blend-mode:multiply"/></g><path fill="none" stroke="#EBE6EF" stroke-linecap="round" stroke-linejoin="round" stroke-width="33" d="M-105.004-104.007s0 0 0 0m52.502 53.002s0 0 0 0M0 0s0 0 0 0" class="primary" style="display:block" transform="translate(299.969 299.47)"/><path fill="none" class="primary" style="display:none"/><path fill="none" stroke="#EBE6EF" stroke-linecap="round" stroke-linejoin="round" stroke-width="33" d="M-81.921-80.305s0 0 0 0m54.632 48.327s0 0 0 0" class="primary" style="display:block" transform="scale(.41 1) rotate(68 -91.314 325.335)"/><path fill="none" class="primary" style="display:none"/><path fill="none" class="primary" style="display:none"/><path fill="none" class="primary" style="display:none"/><path fill="none" class="primary" style="display:none"/><path fill="none" class="primary" style="display:none"/><path fill="none" class="primary" style="display:none"/><path fill="none" stroke="#EBE6EF" stroke-linecap="round" stroke-linejoin="round" stroke-width="33" d="M-52.502-51.005s0 0 0 0" class="primary" style="display:block" transform="matrix(.94343 .28247 -.29817 .4937 251.195 153.019)"/><path fill="none" class="primary" style="display:none"/></g><g clip-path="url(#c)" style="display:none"><g style="display:none"><path class="secondary"/><path class="secondary" style="mix-blend-mode:multiply"/></g><path class="secondary" style="display:none"/><g style="display:none"><path class="secondary"/><path class="secondary" style="mix-blend-mode:multiply"/></g><g fill="none" style="display:none"><path class="primary"/><path class="primary"/><path class="primary"/></g><g fill="none" style="display:none"><path class="primary"/><path class="primary"/></g><path fill="none" class="primary" style="display:none"/></g></g></svg>